mtllib Target.mtl
o Target.obj
v -0.382155 0.000000 -0.017714
v 0.382155 0.000000 -0.017714
v -0.382155 1.282978 -0.017714
v 0.382155 1.282978 -0.017714
v -0.382155 0.000000 0.017714
v 0.382155 0.000000 0.017714
v -0.382155 1.282978 0.017714
v 0.382155 1.282978 0.017714
v 0.195661 1.382292 0.017714
v -0.195661 1.382292 0.017714
v 0.195661 1.382292 -0.017714
v -0.195661 1.382292 -0.017714
v 0.124907 1.420906 0.017714
v -0.124907 1.420906 0.017714
v 0.124907 1.420906 -0.017714
v -0.124907 1.420906 -0.017714
v 0.124907 1.792431 0.017714
v -0.124907 1.792431 0.017714
v 0.124907 1.792431 -0.017714
v -0.124907 1.792431 -0.017714
v 0.106356 1.803136 0.017714
v -0.106356 1.803136 0.017714
v 0.106356 1.803136 -0.017714
v -0.106356 1.803136 -0.017714
vn -0.577350 -0.577350 -0.577350
vn 0.577350 -0.577350 -0.577350
vn -0.558016 0.335046 -0.759185
vn 0.558016 0.335046 -0.759185
vn -0.577350 -0.577350 0.577350
vn 0.577350 -0.577350 0.577350
vn -0.558016 0.335046 0.759185
vn 0.558016 0.335046 0.759185
vn 0.335556 0.622411 0.707111
vn -0.335556 0.622411 0.707111
vn 0.335556 0.622411 -0.707111
vn -0.335556 0.622411 -0.707111
vn 0.560709 0.332770 0.758202
vn -0.560709 0.332770 0.758202
vn 0.560709 0.332770 -0.758202
vn -0.560709 0.332770 -0.758202
vn 0.566891 0.327376 0.755949
vn -0.566891 0.327376 0.755949
vn 0.566891 0.327376 -0.755949
vn -0.566891 0.327376 -0.755949
vn 0.229759 0.857844 0.459690
vn -0.229759 0.857844 0.459690
vn 0.229759 0.857844 -0.459690
vn -0.229759 0.857844 -0.459690
vt 0.995049 0.995049
vt 0.995049 0.995049
vt 0.004950 0.995049
vt 0.004950 0.995049
vt 0.995049 0.004950
vt 0.995049 0.004950
vt 0.004950 0.004950
vt 0.004950 0.004950
vt 0.004950 0.004950
vt 0.995049 0.004950
vt 0.995049 0.995049
vt 0.004950 0.995049
vt 0.995049 0.004950
vt 0.004950 0.004950
vt 0.995049 0.995049
vt 0.004950 0.995049
vt 0.995049 0.004950
vt 0.004950 0.004950
vt 0.995049 0.995049
vt 0.004950 0.995049
vt 0.995049 0.004950
vt 0.004950 0.004950
vt 0.995049 0.995049
vt 0.004950 0.995049
g Cube
usemtl Default
f 4/1/4 2/2/2 1/3/1 3/4/3 
f 6/5/6 8/6/8 7/7/7 5/8/5 
f 6/5/6 5/8/5 1/3/1 2/2/2 
f 8/6/8 6/5/6 2/2/2 4/1/4 
f 22/9/22 21/10/21 23/11/23 24/12/24 
f 5/8/5 7/7/7 3/4/3 1/3/1 
f 7/7/7 8/6/8 9/13/9 10/14/10 
f 8/6/8 4/1/4 11/15/11 9/13/9 
f 4/1/4 3/4/3 12/16/12 11/15/11 
f 3/4/3 7/7/7 10/14/10 12/16/12 
f 10/14/10 9/13/9 13/17/13 14/18/14 
f 9/13/9 11/15/11 15/19/15 13/17/13 
f 11/15/11 12/16/12 16/20/16 15/19/15 
f 12/16/12 10/14/10 14/18/14 16/20/16 
f 14/18/14 13/17/13 17/21/17 18/22/18 
f 13/17/13 15/19/15 19/23/19 17/21/17 
f 15/19/15 16/20/16 20/24/20 19/23/19 
f 16/20/16 14/18/14 18/22/18 20/24/20 
f 18/22/18 17/21/17 21/10/21 22/9/22 
f 17/21/17 19/23/19 23/11/23 21/10/21 
f 19/23/19 20/24/20 24/12/24 23/11/23 
f 20/24/20 18/22/18 22/9/22 24/12/24 
